<svg xmlns="http://www.w3.org/2000/svg" xmlns:xlink="http://www.w3.org/1999/xlink" width="500" zoomAndPan="magnify" viewBox="0 0 375 374.999991" height="500" preserveAspectRatio="xMidYMid meet" version="1.0"><defs><g/><clipPath id="ff8b3a680d"><path d="M 0 15 L 375 15 L 375 254.976562 L 0 254.976562 Z M 0 15 " clip-rule="nonzero"/></clipPath></defs><g fill="#ef8121" fill-opacity="0.4"><g transform="translate(55.654542, 321.53743)"><g><path d="M 68.5625 -16.0625 C 68.789062 -15.738281 68.867188 -15.398438 68.796875 -15.046875 C 68.734375 -14.703125 68.535156 -14.410156 68.203125 -14.171875 C 60.953125 -8.984375 54.332031 -4.070312 48.34375 0.5625 C 48.957031 2.476562 49.03125 4.582031 48.5625 6.875 C 47.8125 10.851562 46.460938 14.5625 44.515625 18 C 42.578125 21.4375 40.3125 24.566406 37.71875 27.390625 C 35.125 30.222656 32.410156 32.65625 29.578125 34.6875 C 26.742188 36.726562 24.039062 38.320312 21.46875 39.46875 C 18.894531 40.613281 16.675781 41.257812 14.8125 41.40625 C 14.53125 41.445312 14.269531 41.46875 14.03125 41.46875 C 12.582031 41.46875 11.550781 41.175781 10.9375 40.59375 C 10.332031 40.007812 9.9375 39.460938 9.75 38.953125 C 8.675781 36.003906 11.191406 31.148438 17.296875 24.390625 C 23.398438 17.628906 32.648438 9.40625 45.046875 -0.28125 C 43.503906 -3.039062 40.40625 -5.585938 35.75 -7.921875 C 31.09375 -10.265625 24.929688 -12.976562 17.265625 -16.0625 C 16.367188 -16.4375 15.453125 -16.8125 14.515625 -17.1875 C 13.585938 -17.5625 12.632812 -17.960938 11.65625 -18.390625 C 8.28125 -19.785156 5.9375 -21.675781 4.625 -24.0625 C 3.320312 -26.445312 3.160156 -29.1875 4.140625 -32.28125 C 4.890625 -34.664062 6.195312 -37.097656 8.0625 -39.578125 C 9.9375 -42.054688 12.207031 -44.523438 14.875 -46.984375 C 17.539062 -49.441406 20.441406 -51.78125 23.578125 -54 C 26.710938 -56.21875 29.914062 -58.238281 33.1875 -60.0625 C 36.46875 -61.882812 39.671875 -63.425781 42.796875 -64.6875 C 45.929688 -65.957031 48.820312 -66.847656 51.46875 -67.359375 C 54.113281 -67.878906 56.347656 -67.925781 58.171875 -67.5 C 58.921875 -67.3125 59.75 -66.960938 60.65625 -66.453125 C 61.570312 -65.941406 62.296875 -65.113281 62.828125 -63.96875 C 63.367188 -62.820312 63.523438 -61.238281 63.296875 -59.21875 C 63.203125 -58.84375 63.015625 -58.550781 62.734375 -58.34375 C 62.453125 -58.132812 62.125 -58.054688 61.75 -58.109375 C 61.375 -58.148438 61.066406 -58.320312 60.828125 -58.625 C 60.597656 -58.925781 60.507812 -59.265625 60.5625 -59.640625 C 60.84375 -61.609375 60.628906 -62.921875 59.921875 -63.578125 C 59.222656 -64.234375 58.453125 -64.65625 57.609375 -64.84375 C 55.828125 -65.257812 53.472656 -65.113281 50.546875 -64.40625 C 47.628906 -63.707031 44.367188 -62.53125 40.765625 -60.875 C 37.160156 -59.21875 33.46875 -57.171875 29.6875 -54.734375 C 25.65625 -52.203125 22.035156 -49.566406 18.828125 -46.828125 C 15.628906 -44.097656 12.988281 -41.421875 10.90625 -38.796875 C 8.832031 -36.179688 7.441406 -33.75 6.734375 -31.5 C 5.191406 -26.6875 7.179688 -23.132812 12.703125 -20.84375 C 13.679688 -20.46875 14.625 -20.09375 15.53125 -19.71875 C 16.445312 -19.34375 17.375 -18.96875 18.3125 -18.59375 C 23.039062 -16.675781 27.332031 -14.863281 31.1875 -13.15625 C 35.050781 -11.445312 38.347656 -9.703125 41.078125 -7.921875 C 43.816406 -6.148438 45.863281 -4.164062 47.21875 -1.96875 C 53.113281 -6.550781 59.59375 -11.34375 66.65625 -16.34375 C 66.988281 -16.582031 67.328125 -16.664062 67.671875 -16.59375 C 68.023438 -16.519531 68.320312 -16.34375 68.5625 -16.0625 Z M 45.96875 6.3125 C 46.25 4.90625 46.269531 3.597656 46.03125 2.390625 C 36.070312 10.203125 28.164062 17.078125 22.3125 23.015625 C 18.894531 26.523438 16.273438 29.644531 14.453125 32.375 C 12.628906 35.113281 11.90625 37 12.28125 38.03125 C 12.414062 38.40625 12.738281 38.628906 13.25 38.703125 C 13.769531 38.773438 14.21875 38.785156 14.59375 38.734375 C 16.132812 38.640625 18.070312 38.050781 20.40625 36.96875 C 22.75 35.894531 25.226562 34.410156 27.84375 32.515625 C 30.46875 30.628906 33.019531 28.375 35.5 25.75 C 37.976562 23.132812 40.15625 20.1875 42.03125 16.90625 C 43.90625 13.632812 45.21875 10.101562 45.96875 6.3125 Z M 45.96875 6.3125 "/></g></g></g><g fill="#ef8121" fill-opacity="0.4"><g transform="translate(121.475827, 321.53743)"><g><path d="M 33.265625 -16.0625 C 33.546875 -15.875 33.734375 -15.59375 33.828125 -15.21875 C 33.921875 -14.851562 33.875 -14.503906 33.6875 -14.171875 C 31.4375 -10.566406 29.445312 -7.640625 27.71875 -5.390625 C 25.988281 -3.148438 24.503906 -1.445312 23.265625 -0.28125 C 22.023438 0.882812 20.984375 1.675781 20.140625 2.09375 C 19.296875 2.519531 18.613281 2.734375 18.09375 2.734375 C 17.582031 2.734375 17.1875 2.710938 16.90625 2.671875 C 15.832031 2.390625 15.035156 1.742188 14.515625 0.734375 C 14.003906 -0.265625 13.664062 -1.300781 13.5 -2.375 C 13.34375 -3.457031 13.238281 -4.28125 13.1875 -4.84375 C 13.09375 -6.476562 12.90625 -7.578125 12.625 -8.140625 C 12.34375 -8.703125 12.132812 -8.984375 12 -8.984375 C 11.945312 -8.984375 11.921875 -8.984375 11.921875 -8.984375 C 11.316406 -8.984375 10.3125 -8.128906 8.90625 -6.421875 C 7.507812 -4.710938 5.863281 -2.035156 3.96875 1.609375 C 2.070312 5.265625 0.09375 10.015625 -1.96875 15.859375 C -2.15625 16.460938 -2.578125 16.765625 -3.234375 16.765625 C -3.328125 16.765625 -3.421875 16.765625 -3.515625 16.765625 C -4.253906 16.578125 -4.601562 16.113281 -4.5625 15.375 C -4.507812 14.570312 -4.296875 13.140625 -3.921875 11.078125 C -3.554688 9.023438 -3.054688 6.5625 -2.421875 3.6875 C -1.785156 0.8125 -1.082031 -2.304688 -0.3125 -5.671875 C 0.457031 -9.046875 1.25 -12.460938 2.0625 -15.921875 C 2.882812 -19.390625 3.671875 -22.703125 4.421875 -25.859375 C 5.171875 -29.015625 5.847656 -31.851562 6.453125 -34.375 C 7.066406 -36.90625 7.554688 -38.929688 7.921875 -40.453125 C 8.296875 -41.972656 8.484375 -42.757812 8.484375 -42.8125 C 9.566406 -47.113281 10.757812 -51.03125 12.0625 -54.5625 C 13.375 -58.09375 14.671875 -60.929688 15.953125 -63.078125 C 17.242188 -65.234375 18.382812 -66.40625 19.375 -66.59375 C 20.164062 -66.726562 20.769531 -66.492188 21.1875 -65.890625 C 21.84375 -64.953125 21.785156 -63 21.015625 -60.03125 C 20.242188 -57.0625 18.835938 -53.304688 16.796875 -48.765625 C 14.765625 -44.234375 12.179688 -39.160156 9.046875 -33.546875 C 8.210938 -30.035156 7.289062 -26.195312 6.28125 -22.03125 C 5.269531 -17.863281 4.285156 -13.675781 3.328125 -9.46875 C 2.367188 -5.257812 1.492188 -1.378906 0.703125 2.171875 C 1.960938 -0.492188 3.257812 -2.898438 4.59375 -5.046875 C 5.925781 -7.203125 7.257812 -8.875 8.59375 -10.0625 C 9.925781 -11.257812 11.175781 -11.789062 12.34375 -11.65625 C 13.375 -11.507812 14.132812 -10.988281 14.625 -10.09375 C 15.125 -9.207031 15.453125 -8.257812 15.609375 -7.25 C 15.773438 -6.25 15.859375 -5.515625 15.859375 -5.046875 C 15.992188 -3.316406 16.222656 -2.050781 16.546875 -1.25 C 16.878906 -0.457031 17.210938 -0.0390625 17.546875 0 C 17.640625 0.0390625 17.953125 -0.015625 18.484375 -0.171875 C 19.023438 -0.335938 19.820312 -0.863281 20.875 -1.75 C 21.925781 -2.644531 23.316406 -4.175781 25.046875 -6.34375 C 26.773438 -8.519531 28.878906 -11.617188 31.359375 -15.640625 C 31.546875 -15.921875 31.828125 -16.109375 32.203125 -16.203125 C 32.578125 -16.296875 32.929688 -16.25 33.265625 -16.0625 Z M 18.875 -62.65625 C 18.082031 -61.488281 17.019531 -59.421875 15.6875 -56.453125 C 14.351562 -53.484375 13.007812 -49.445312 11.65625 -44.34375 C 14.039062 -49.070312 15.78125 -52.957031 16.875 -56 C 17.976562 -59.039062 18.644531 -61.257812 18.875 -62.65625 Z M 18.875 -62.65625 "/></g></g></g><g fill="#ef8121" fill-opacity="0.4"><g transform="translate(151.719939, 321.53743)"><g><path d="M 25.40625 -15.296875 C 25.726562 -15.066406 25.910156 -14.765625 25.953125 -14.390625 C 26.003906 -14.015625 25.914062 -13.6875 25.6875 -13.40625 C 24.46875 -11.863281 23.050781 -10.484375 21.4375 -9.265625 C 19.820312 -8.046875 18.132812 -7.144531 16.375 -6.5625 C 14.625 -5.976562 12.929688 -5.875 11.296875 -6.25 C 10.640625 -4.613281 9.710938 -3.347656 8.515625 -2.453125 C 7.328125 -1.566406 6.125 -1.125 4.90625 -1.125 C 4.90625 -1.125 4.894531 -1.125 4.875 -1.125 C 4.851562 -1.125 4.84375 -1.125 4.84375 -1.125 C 3.582031 -1.164062 2.46875 -1.597656 1.5 -2.421875 C 0.539062 -3.242188 -0.117188 -4.378906 -0.484375 -5.828125 C -0.910156 -7.460938 -0.984375 -9.015625 -0.703125 -10.484375 C -0.421875 -11.960938 0.09375 -13.257812 0.84375 -14.375 C 1.59375 -15.5 2.4375 -16.367188 3.375 -16.984375 C 3.695312 -17.210938 4.066406 -17.257812 4.484375 -17.125 C 4.910156 -18.15625 5.507812 -18.945312 6.28125 -19.5 C 7.050781 -20.0625 7.859375 -20.273438 8.703125 -20.140625 C 9.210938 -20.046875 9.769531 -19.726562 10.375 -19.1875 C 10.988281 -18.65625 11.484375 -17.695312 11.859375 -16.3125 C 12.234375 -14.9375 12.347656 -12.914062 12.203125 -10.25 C 12.160156 -9.78125 12.09375 -9.3125 12 -8.84375 C 13.257812 -8.601562 14.59375 -8.738281 16 -9.25 C 17.40625 -9.769531 18.757812 -10.554688 20.0625 -11.609375 C 21.375 -12.660156 22.519531 -13.820312 23.5 -15.09375 C 23.738281 -15.375 24.046875 -15.535156 24.421875 -15.578125 C 24.796875 -15.617188 25.125 -15.523438 25.40625 -15.296875 Z M 4.90625 -3.859375 C 5.519531 -3.859375 6.195312 -4.140625 6.9375 -4.703125 C 7.6875 -5.265625 8.296875 -6.109375 8.765625 -7.234375 C 7.085938 -8.160156 5.882812 -9.234375 5.15625 -10.453125 C 4.425781 -11.671875 4.039062 -12.890625 4 -14.109375 C 3.019531 -13.171875 2.375 -11.972656 2.0625 -10.515625 C 1.757812 -9.066406 1.773438 -7.757812 2.109375 -6.59375 C 2.242188 -6.082031 2.519531 -5.5 2.9375 -4.84375 C 3.363281 -4.1875 4.019531 -3.859375 4.90625 -3.859375 Z M 9.46875 -10.390625 C 9.5625 -12.253906 9.523438 -13.703125 9.359375 -14.734375 C 9.203125 -15.765625 9.003906 -16.46875 8.765625 -16.84375 C 8.535156 -17.21875 8.375 -17.425781 8.28125 -17.46875 C 8.226562 -17.46875 8.203125 -17.46875 8.203125 -17.46875 C 8.066406 -17.46875 7.859375 -17.328125 7.578125 -17.046875 C 7.296875 -16.765625 7.0625 -16.34375 6.875 -15.78125 C 6.59375 -14.894531 6.613281 -13.925781 6.9375 -12.875 C 7.269531 -11.820312 8.113281 -10.851562 9.46875 -9.96875 C 9.46875 -10.101562 9.46875 -10.242188 9.46875 -10.390625 Z M 9.46875 -10.390625 "/></g></g></g><g fill="#ef8121" fill-opacity="0.4"><g transform="translate(174.174962, 321.53743)"><g><path d="M 15.015625 -26.03125 C 16.421875 -25.613281 17.359375 -24.503906 17.828125 -22.703125 C 18.296875 -20.898438 18.222656 -18.804688 17.609375 -16.421875 C 16.910156 -13.847656 15.726562 -11.601562 14.0625 -9.6875 C 12.40625 -7.769531 10.828125 -6.203125 9.328125 -4.984375 C 7.503906 -3.484375 5.492188 -2.171875 3.296875 -1.046875 C 2.546875 1.898438 1.773438 5.1875 0.984375 8.8125 C 0.191406 12.4375 -0.597656 16.15625 -1.390625 19.96875 C -2.191406 23.78125 -2.941406 27.5 -3.640625 31.125 C -4.347656 34.75 -4.992188 38.09375 -5.578125 41.15625 C -6.160156 44.21875 -6.617188 46.78125 -6.953125 48.84375 C -7.085938 49.59375 -7.53125 49.96875 -8.28125 49.96875 C -8.375 49.96875 -8.441406 49.96875 -8.484375 49.96875 C -8.859375 49.914062 -9.148438 49.738281 -9.359375 49.4375 C -9.578125 49.132812 -9.660156 48.796875 -9.609375 48.421875 C -9.234375 45.753906 -8.742188 42.59375 -8.140625 38.9375 C -7.535156 35.289062 -6.867188 31.347656 -6.140625 27.109375 C -5.410156 22.878906 -4.660156 18.539062 -3.890625 14.09375 C -3.117188 9.65625 -2.335938 5.285156 -1.546875 0.984375 C -2.109375 1.171875 -2.671875 1.332031 -3.234375 1.46875 C -3.609375 1.613281 -3.957031 1.59375 -4.28125 1.40625 C -4.601562 1.21875 -4.8125 0.9375 -4.90625 0.5625 C -5 0.1875 -4.953125 -0.160156 -4.765625 -0.484375 C -4.578125 -0.816406 -4.296875 -1.03125 -3.921875 -1.125 C -2.992188 -1.351562 -2.035156 -1.679688 -1.046875 -2.109375 C -0.816406 -3.367188 -0.582031 -4.609375 -0.34375 -5.828125 C -0.113281 -7.046875 0.09375 -8.238281 0.28125 -9.40625 C 0.9375 -13.101562 1.546875 -16.503906 2.109375 -19.609375 C 2.671875 -22.722656 3.125 -25.296875 3.46875 -27.328125 C 3.820312 -29.367188 4 -30.53125 4 -30.8125 C 4 -31.644531 4.421875 -32.085938 5.265625 -32.140625 C 5.640625 -32.179688 5.96875 -32.070312 6.25 -31.8125 C 6.53125 -31.5625 6.691406 -31.25 6.734375 -30.875 C 6.734375 -30.78125 6.695312 -30.453125 6.625 -29.890625 C 6.5625 -29.328125 6.410156 -28.390625 6.171875 -27.078125 C 5.941406 -25.773438 5.601562 -23.882812 5.15625 -21.40625 C 4.707031 -18.925781 4.132812 -15.71875 3.4375 -11.78125 C 4.695312 -15.382812 5.921875 -18.203125 7.109375 -20.234375 C 8.304688 -22.273438 9.421875 -23.726562 10.453125 -24.59375 C 11.484375 -25.457031 12.382812 -25.945312 13.15625 -26.0625 C 13.925781 -26.1875 14.546875 -26.175781 15.015625 -26.03125 Z M 15.015625 -17.125 C 15.484375 -18.945312 15.585938 -20.421875 15.328125 -21.546875 C 15.078125 -22.671875 14.71875 -23.300781 14.25 -23.4375 C 14.195312 -23.476562 14.125 -23.5 14.03125 -23.5 C 13.65625 -23.5 13.054688 -23.160156 12.234375 -22.484375 C 11.421875 -21.804688 10.460938 -20.539062 9.359375 -18.6875 C 8.265625 -16.84375 7.109375 -14.125 5.890625 -10.53125 C 5.421875 -9.125 4.859375 -7.15625 4.203125 -4.625 C 6.734375 -6.175781 9.003906 -8.023438 11.015625 -10.171875 C 13.023438 -12.328125 14.359375 -14.644531 15.015625 -17.125 Z M 15.015625 -17.125 "/></g></g></g><g fill="#ef8121" fill-opacity="1"><g transform="translate(55.654542, 321.53743)"><g><path d="M 68.5625 -16.0625 C 68.789062 -15.738281 68.867188 -15.398438 68.796875 -15.046875 C 68.734375 -14.703125 68.535156 -14.410156 68.203125 -14.171875 C 60.953125 -8.984375 54.332031 -4.070312 48.34375 0.5625 C 48.957031 2.476562 49.03125 4.582031 48.5625 6.875 C 47.8125 10.851562 46.460938 14.5625 44.515625 18 C 42.578125 21.4375 40.3125 24.566406 37.71875 27.390625 C 35.125 30.222656 32.410156 32.65625 29.578125 34.6875 C 26.742188 36.726562 24.039062 38.320312 21.46875 39.46875 C 18.894531 40.613281 16.675781 41.257812 14.8125 41.40625 C 14.53125 41.445312 14.269531 41.46875 14.03125 41.46875 C 12.582031 41.46875 11.550781 41.175781 10.9375 40.59375 C 10.332031 40.007812 9.9375 39.460938 9.75 38.953125 C 8.675781 36.003906 11.191406 31.148438 17.296875 24.390625 C 23.398438 17.628906 32.648438 9.40625 45.046875 -0.28125 C 43.503906 -3.039062 40.40625 -5.585938 35.75 -7.921875 C 31.09375 -10.265625 24.929688 -12.976562 17.265625 -16.0625 C 16.367188 -16.4375 15.453125 -16.8125 14.515625 -17.1875 C 13.585938 -17.5625 12.632812 -17.960938 11.65625 -18.390625 C 8.28125 -19.785156 5.9375 -21.675781 4.625 -24.0625 C 3.320312 -26.445312 3.160156 -29.1875 4.140625 -32.28125 C 4.890625 -34.664062 6.195312 -37.097656 8.0625 -39.578125 C 9.9375 -42.054688 12.207031 -44.523438 14.875 -46.984375 C 17.539062 -49.441406 20.441406 -51.78125 23.578125 -54 C 26.710938 -56.21875 29.914062 -58.238281 33.1875 -60.0625 C 36.46875 -61.882812 39.671875 -63.425781 42.796875 -64.6875 C 45.929688 -65.957031 48.820312 -66.847656 51.46875 -67.359375 C 54.113281 -67.878906 56.347656 -67.925781 58.171875 -67.5 C 58.921875 -67.3125 59.75 -66.960938 60.65625 -66.453125 C 61.570312 -65.941406 62.296875 -65.113281 62.828125 -63.96875 C 63.367188 -62.820312 63.523438 -61.238281 63.296875 -59.21875 C 63.203125 -58.84375 63.015625 -58.550781 62.734375 -58.34375 C 62.453125 -58.132812 62.125 -58.054688 61.75 -58.109375 C 61.375 -58.148438 61.066406 -58.320312 60.828125 -58.625 C 60.597656 -58.925781 60.507812 -59.265625 60.5625 -59.640625 C 60.84375 -61.609375 60.628906 -62.921875 59.921875 -63.578125 C 59.222656 -64.234375 58.453125 -64.65625 57.609375 -64.84375 C 55.828125 -65.257812 53.472656 -65.113281 50.546875 -64.40625 C 47.628906 -63.707031 44.367188 -62.53125 40.765625 -60.875 C 37.160156 -59.21875 33.46875 -57.171875 29.6875 -54.734375 C 25.65625 -52.203125 22.035156 -49.566406 18.828125 -46.828125 C 15.628906 -44.097656 12.988281 -41.421875 10.90625 -38.796875 C 8.832031 -36.179688 7.441406 -33.75 6.734375 -31.5 C 5.191406 -26.6875 7.179688 -23.132812 12.703125 -20.84375 C 13.679688 -20.46875 14.625 -20.09375 15.53125 -19.71875 C 16.445312 -19.34375 17.375 -18.96875 18.3125 -18.59375 C 23.039062 -16.675781 27.332031 -14.863281 31.1875 -13.15625 C 35.050781 -11.445312 38.347656 -9.703125 41.078125 -7.921875 C 43.816406 -6.148438 45.863281 -4.164062 47.21875 -1.96875 C 53.113281 -6.550781 59.59375 -11.34375 66.65625 -16.34375 C 66.988281 -16.582031 67.328125 -16.664062 67.671875 -16.59375 C 68.023438 -16.519531 68.320312 -16.34375 68.5625 -16.0625 Z M 45.96875 6.3125 C 46.25 4.90625 46.269531 3.597656 46.03125 2.390625 C 36.070312 10.203125 28.164062 17.078125 22.3125 23.015625 C 18.894531 26.523438 16.273438 29.644531 14.453125 32.375 C 12.628906 35.113281 11.90625 37 12.28125 38.03125 C 12.414062 38.40625 12.738281 38.628906 13.25 38.703125 C 13.769531 38.773438 14.21875 38.785156 14.59375 38.734375 C 16.132812 38.640625 18.070312 38.050781 20.40625 36.96875 C 22.75 35.894531 25.226562 34.410156 27.84375 32.515625 C 30.46875 30.628906 33.019531 28.375 35.5 25.75 C 37.976562 23.132812 40.15625 20.1875 42.03125 16.90625 C 43.90625 13.632812 45.21875 10.101562 45.96875 6.3125 Z M 45.96875 6.3125 "/></g></g></g><g fill="#ef8121" fill-opacity="1"><g transform="translate(121.475827, 321.53743)"><g><path d="M 33.265625 -16.0625 C 33.546875 -15.875 33.734375 -15.59375 33.828125 -15.21875 C 33.921875 -14.851562 33.875 -14.503906 33.6875 -14.171875 C 31.4375 -10.566406 29.445312 -7.640625 27.71875 -5.390625 C 25.988281 -3.148438 24.503906 -1.445312 23.265625 -0.28125 C 22.023438 0.882812 20.984375 1.675781 20.140625 2.09375 C 19.296875 2.519531 18.613281 2.734375 18.09375 2.734375 C 17.582031 2.734375 17.1875 2.710938 16.90625 2.671875 C 15.832031 2.390625 15.035156 1.742188 14.515625 0.734375 C 14.003906 -0.265625 13.664062 -1.300781 13.5 -2.375 C 13.34375 -3.457031 13.238281 -4.28125 13.1875 -4.84375 C 13.09375 -6.476562 12.90625 -7.578125 12.625 -8.140625 C 12.34375 -8.703125 12.132812 -8.984375 12 -8.984375 C 11.945312 -8.984375 11.921875 -8.984375 11.921875 -8.984375 C 11.316406 -8.984375 10.3125 -8.128906 8.90625 -6.421875 C 7.507812 -4.710938 5.863281 -2.035156 3.96875 1.609375 C 2.070312 5.265625 0.09375 10.015625 -1.96875 15.859375 C -2.15625 16.460938 -2.578125 16.765625 -3.234375 16.765625 C -3.328125 16.765625 -3.421875 16.765625 -3.515625 16.765625 C -4.253906 16.578125 -4.601562 16.113281 -4.5625 15.375 C -4.507812 14.570312 -4.296875 13.140625 -3.921875 11.078125 C -3.554688 9.023438 -3.054688 6.5625 -2.421875 3.6875 C -1.785156 0.8125 -1.082031 -2.304688 -0.3125 -5.671875 C 0.457031 -9.046875 1.25 -12.460938 2.0625 -15.921875 C 2.882812 -19.390625 3.671875 -22.703125 4.421875 -25.859375 C 5.171875 -29.015625 5.847656 -31.851562 6.453125 -34.375 C 7.066406 -36.90625 7.554688 -38.929688 7.921875 -40.453125 C 8.296875 -41.972656 8.484375 -42.757812 8.484375 -42.8125 C 9.566406 -47.113281 10.757812 -51.03125 12.0625 -54.5625 C 13.375 -58.09375 14.671875 -60.929688 15.953125 -63.078125 C 17.242188 -65.234375 18.382812 -66.40625 19.375 -66.59375 C 20.164062 -66.726562 20.769531 -66.492188 21.1875 -65.890625 C 21.84375 -64.953125 21.785156 -63 21.015625 -60.03125 C 20.242188 -57.0625 18.835938 -53.304688 16.796875 -48.765625 C 14.765625 -44.234375 12.179688 -39.160156 9.046875 -33.546875 C 8.210938 -30.035156 7.289062 -26.195312 6.28125 -22.03125 C 5.269531 -17.863281 4.285156 -13.675781 3.328125 -9.46875 C 2.367188 -5.257812 1.492188 -1.378906 0.703125 2.171875 C 1.960938 -0.492188 3.257812 -2.898438 4.59375 -5.046875 C 5.925781 -7.203125 7.257812 -8.875 8.59375 -10.0625 C 9.925781 -11.257812 11.175781 -11.789062 12.34375 -11.65625 C 13.375 -11.507812 14.132812 -10.988281 14.625 -10.09375 C 15.125 -9.207031 15.453125 -8.257812 15.609375 -7.25 C 15.773438 -6.25 15.859375 -5.515625 15.859375 -5.046875 C 15.992188 -3.316406 16.222656 -2.050781 16.546875 -1.25 C 16.878906 -0.457031 17.210938 -0.0390625 17.546875 0 C 17.640625 0.0390625 17.953125 -0.015625 18.484375 -0.171875 C 19.023438 -0.335938 19.820312 -0.863281 20.875 -1.75 C 21.925781 -2.644531 23.316406 -4.175781 25.046875 -6.34375 C 26.773438 -8.519531 28.878906 -11.617188 31.359375 -15.640625 C 31.546875 -15.921875 31.828125 -16.109375 32.203125 -16.203125 C 32.578125 -16.296875 32.929688 -16.25 33.265625 -16.0625 Z M 18.875 -62.65625 C 18.082031 -61.488281 17.019531 -59.421875 15.6875 -56.453125 C 14.351562 -53.484375 13.007812 -49.445312 11.65625 -44.34375 C 14.039062 -49.070312 15.78125 -52.957031 16.875 -56 C 17.976562 -59.039062 18.644531 -61.257812 18.875 -62.65625 Z M 18.875 -62.65625 "/></g></g></g><g fill="#ef8121" fill-opacity="1"><g transform="translate(151.719939, 321.53743)"><g><path d="M 25.40625 -15.296875 C 25.726562 -15.066406 25.910156 -14.765625 25.953125 -14.390625 C 26.003906 -14.015625 25.914062 -13.6875 25.6875 -13.40625 C 24.46875 -11.863281 23.050781 -10.484375 21.4375 -9.265625 C 19.820312 -8.046875 18.132812 -7.144531 16.375 -6.5625 C 14.625 -5.976562 12.929688 -5.875 11.296875 -6.25 C 10.640625 -4.613281 9.710938 -3.347656 8.515625 -2.453125 C 7.328125 -1.566406 6.125 -1.125 4.90625 -1.125 C 4.90625 -1.125 4.894531 -1.125 4.875 -1.125 C 4.851562 -1.125 4.84375 -1.125 4.84375 -1.125 C 3.582031 -1.164062 2.46875 -1.597656 1.5 -2.421875 C 0.539062 -3.242188 -0.117188 -4.378906 -0.484375 -5.828125 C -0.910156 -7.460938 -0.984375 -9.015625 -0.703125 -10.484375 C -0.421875 -11.960938 0.09375 -13.257812 0.84375 -14.375 C 1.59375 -15.5 2.4375 -16.367188 3.375 -16.984375 C 3.695312 -17.210938 4.066406 -17.257812 4.484375 -17.125 C 4.910156 -18.15625 5.507812 -18.945312 6.28125 -19.5 C 7.050781 -20.0625 7.859375 -20.273438 8.703125 -20.140625 C 9.210938 -20.046875 9.769531 -19.726562 10.375 -19.1875 C 10.988281 -18.65625 11.484375 -17.695312 11.859375 -16.3125 C 12.234375 -14.9375 12.347656 -12.914062 12.203125 -10.25 C 12.160156 -9.78125 12.09375 -9.3125 12 -8.84375 C 13.257812 -8.601562 14.59375 -8.738281 16 -9.25 C 17.40625 -9.769531 18.757812 -10.554688 20.0625 -11.609375 C 21.375 -12.660156 22.519531 -13.820312 23.5 -15.09375 C 23.738281 -15.375 24.046875 -15.535156 24.421875 -15.578125 C 24.796875 -15.617188 25.125 -15.523438 25.40625 -15.296875 Z M 4.90625 -3.859375 C 5.519531 -3.859375 6.195312 -4.140625 6.9375 -4.703125 C 7.6875 -5.265625 8.296875 -6.109375 8.765625 -7.234375 C 7.085938 -8.160156 5.882812 -9.234375 5.15625 -10.453125 C 4.425781 -11.671875 4.039062 -12.890625 4 -14.109375 C 3.019531 -13.171875 2.375 -11.972656 2.0625 -10.515625 C 1.757812 -9.066406 1.773438 -7.757812 2.109375 -6.59375 C 2.242188 -6.082031 2.519531 -5.5 2.9375 -4.84375 C 3.363281 -4.1875 4.019531 -3.859375 4.90625 -3.859375 Z M 9.46875 -10.390625 C 9.5625 -12.253906 9.523438 -13.703125 9.359375 -14.734375 C 9.203125 -15.765625 9.003906 -16.46875 8.765625 -16.84375 C 8.535156 -17.21875 8.375 -17.425781 8.28125 -17.46875 C 8.226562 -17.46875 8.203125 -17.46875 8.203125 -17.46875 C 8.066406 -17.46875 7.859375 -17.328125 7.578125 -17.046875 C 7.296875 -16.765625 7.0625 -16.34375 6.875 -15.78125 C 6.59375 -14.894531 6.613281 -13.925781 6.9375 -12.875 C 7.269531 -11.820312 8.113281 -10.851562 9.46875 -9.96875 C 9.46875 -10.101562 9.46875 -10.242188 9.46875 -10.390625 Z M 9.46875 -10.390625 "/></g></g></g><g fill="#ef8121" fill-opacity="1"><g transform="translate(174.174962, 321.53743)"><g><path d="M 15.015625 -26.03125 C 16.421875 -25.613281 17.359375 -24.503906 17.828125 -22.703125 C 18.296875 -20.898438 18.222656 -18.804688 17.609375 -16.421875 C 16.910156 -13.847656 15.726562 -11.601562 14.0625 -9.6875 C 12.40625 -7.769531 10.828125 -6.203125 9.328125 -4.984375 C 7.503906 -3.484375 5.492188 -2.171875 3.296875 -1.046875 C 2.546875 1.898438 1.773438 5.1875 0.984375 8.8125 C 0.191406 12.4375 -0.597656 16.15625 -1.390625 19.96875 C -2.191406 23.78125 -2.941406 27.5 -3.640625 31.125 C -4.347656 34.75 -4.992188 38.09375 -5.578125 41.15625 C -6.160156 44.21875 -6.617188 46.78125 -6.953125 48.84375 C -7.085938 49.59375 -7.53125 49.96875 -8.28125 49.96875 C -8.375 49.96875 -8.441406 49.96875 -8.484375 49.96875 C -8.859375 49.914062 -9.148438 49.738281 -9.359375 49.4375 C -9.578125 49.132812 -9.660156 48.796875 -9.609375 48.421875 C -9.234375 45.753906 -8.742188 42.59375 -8.140625 38.9375 C -7.535156 35.289062 -6.867188 31.347656 -6.140625 27.109375 C -5.410156 22.878906 -4.660156 18.539062 -3.890625 14.09375 C -3.117188 9.65625 -2.335938 5.285156 -1.546875 0.984375 C -2.109375 1.171875 -2.671875 1.332031 -3.234375 1.46875 C -3.609375 1.613281 -3.957031 1.59375 -4.28125 1.40625 C -4.601562 1.21875 -4.8125 0.9375 -4.90625 0.5625 C -5 0.1875 -4.953125 -0.160156 -4.765625 -0.484375 C -4.578125 -0.816406 -4.296875 -1.03125 -3.921875 -1.125 C -2.992188 -1.351562 -2.035156 -1.679688 -1.046875 -2.109375 C -0.816406 -3.367188 -0.582031 -4.609375 -0.34375 -5.828125 C -0.113281 -7.046875 0.09375 -8.238281 0.28125 -9.40625 C 0.9375 -13.101562 1.546875 -16.503906 2.109375 -19.609375 C 2.671875 -22.722656 3.125 -25.296875 3.46875 -27.328125 C 3.820312 -29.367188 4 -30.53125 4 -30.8125 C 4 -31.644531 4.421875 -32.085938 5.265625 -32.140625 C 5.640625 -32.179688 5.96875 -32.070312 6.25 -31.8125 C 6.53125 -31.5625 6.691406 -31.25 6.734375 -30.875 C 6.734375 -30.78125 6.695312 -30.453125 6.625 -29.890625 C 6.5625 -29.328125 6.410156 -28.390625 6.171875 -27.078125 C 5.941406 -25.773438 5.601562 -23.882812 5.15625 -21.40625 C 4.707031 -18.925781 4.132812 -15.71875 3.4375 -11.78125 C 4.695312 -15.382812 5.921875 -18.203125 7.109375 -20.234375 C 8.304688 -22.273438 9.421875 -23.726562 10.453125 -24.59375 C 11.484375 -25.457031 12.382812 -25.945312 13.15625 -26.0625 C 13.925781 -26.1875 14.546875 -26.175781 15.015625 -26.03125 Z M 15.015625 -17.125 C 15.484375 -18.945312 15.585938 -20.421875 15.328125 -21.546875 C 15.078125 -22.671875 14.71875 -23.300781 14.25 -23.4375 C 14.195312 -23.476562 14.125 -23.5 14.03125 -23.5 C 13.65625 -23.5 13.054688 -23.160156 12.234375 -22.484375 C 11.421875 -21.804688 10.460938 -20.539062 9.359375 -18.6875 C 8.265625 -16.84375 7.109375 -14.125 5.890625 -10.53125 C 5.421875 -9.125 4.859375 -7.15625 4.203125 -4.625 C 6.734375 -6.175781 9.003906 -8.023438 11.015625 -10.171875 C 13.023438 -12.328125 14.359375 -14.644531 15.015625 -17.125 Z M 15.015625 -17.125 "/></g></g></g><g fill="#1c486f" fill-opacity="1"><g transform="translate(195.386944, 321.53743)"><g><path d="M 87.859375 -60.5625 C 87.992188 -58.269531 87.875 -55.238281 87.5 -51.46875 C 87.125 -47.707031 86.570312 -43.4375 85.84375 -38.65625 C 85.125 -33.882812 84.285156 -28.84375 83.328125 -23.53125 C 82.367188 -18.226562 81.398438 -12.890625 80.421875 -7.515625 C 79.765625 -3.765625 79.082031 0.0625 78.375 3.96875 C 77.675781 7.875 77.035156 11.613281 76.453125 15.1875 C 75.867188 18.769531 75.410156 21.925781 75.078125 24.65625 C 74.753906 27.394531 74.613281 29.445312 74.65625 30.8125 C 74.84375 30.476562 75.054688 30.125 75.296875 29.75 C 75.484375 29.425781 75.75 29.21875 76.09375 29.125 C 76.445312 29.03125 76.789062 29.078125 77.125 29.265625 C 77.445312 29.453125 77.65625 29.71875 77.75 30.0625 C 77.84375 30.414062 77.796875 30.757812 77.609375 31.09375 C 77.046875 32.019531 76.4375 32.867188 75.78125 33.640625 C 75.125 34.421875 74.351562 34.671875 73.46875 34.390625 C 72.957031 34.148438 72.570312 33.644531 72.3125 32.875 C 72.050781 32.101562 71.957031 30.835938 72.03125 29.078125 C 72.101562 27.328125 72.347656 24.894531 72.765625 21.78125 C 73.191406 18.675781 73.8125 14.691406 74.625 9.828125 C 75.445312 4.960938 76.515625 -0.953125 77.828125 -7.921875 C 78.710938 -13.066406 79.617188 -18.257812 80.546875 -23.5 C 81.484375 -28.738281 82.328125 -33.742188 83.078125 -38.515625 C 83.828125 -43.296875 84.398438 -47.578125 84.796875 -51.359375 C 85.203125 -55.148438 85.332031 -58.144531 85.1875 -60.34375 C 85.09375 -61.695312 84.90625 -62.691406 84.625 -63.328125 C 84.34375 -63.960938 84.0625 -64.300781 83.78125 -64.34375 C 83.78125 -64.34375 83.757812 -64.34375 83.71875 -64.34375 C 83.25 -64.34375 82.425781 -63.835938 81.25 -62.828125 C 80.082031 -61.828125 78.617188 -60.039062 76.859375 -57.46875 C 75.109375 -54.894531 73.039062 -51.25 70.65625 -46.53125 C 68.226562 -41.65625 65.210938 -34.710938 61.609375 -25.703125 C 58.003906 -16.703125 54.171875 -5.140625 50.109375 8.984375 C 49.867188 9.828125 49.328125 10.15625 48.484375 9.96875 C 47.640625 9.78125 47.289062 9.265625 47.4375 8.421875 C 50.707031 -10.847656 52.460938 -25.328125 52.703125 -35.015625 C 52.796875 -38.003906 52.75 -40.351562 52.5625 -42.0625 C 52.375 -43.769531 52.140625 -45.007812 51.859375 -45.78125 C 51.578125 -46.550781 51.328125 -47.039062 51.109375 -47.25 C 50.898438 -47.46875 50.773438 -47.597656 50.734375 -47.640625 C 50.691406 -47.640625 50.46875 -47.566406 50.0625 -47.421875 C 49.664062 -47.285156 49.046875 -46.820312 48.203125 -46.03125 C 47.359375 -45.238281 46.269531 -43.859375 44.9375 -41.890625 C 43.601562 -39.929688 42 -37.148438 40.125 -33.546875 C 38.257812 -29.941406 36.066406 -25.257812 33.546875 -19.5 C 30.972656 -13.5625 28.382812 -7.140625 25.78125 -0.234375 C 23.1875 6.660156 20.695312 13.734375 18.3125 20.984375 C 15.925781 28.234375 13.75 35.34375 11.78125 42.3125 C 11.78125 42.3125 11.78125 42.335938 11.78125 42.390625 C 11.457031 43.222656 11.117188 43.96875 10.765625 44.625 C 10.421875 45.28125 9.96875 45.609375 9.40625 45.609375 C 9.257812 45.609375 9.09375 45.585938 8.90625 45.546875 C 8.25 45.304688 7.910156 44.800781 7.890625 44.03125 C 7.867188 43.257812 7.972656 42.054688 8.203125 40.421875 C 8.535156 38.222656 9.097656 35.066406 9.890625 30.953125 C 11.296875 23.878906 13.351562 14.191406 16.0625 1.890625 C 17.28125 -3.765625 18.507812 -9.34375 19.75 -14.84375 C 20.988281 -20.34375 22.144531 -25.441406 23.21875 -30.140625 C 24.300781 -34.835938 25.238281 -38.867188 26.03125 -42.234375 C 26.832031 -45.609375 27.394531 -47.972656 27.71875 -49.328125 C 28.46875 -52.554688 28.851562 -55 28.875 -56.65625 C 28.894531 -58.320312 28.753906 -59.484375 28.453125 -60.140625 C 28.148438 -60.796875 27.90625 -61.191406 27.71875 -61.328125 C 27.207031 -61.660156 26.421875 -61.613281 25.359375 -61.1875 C 24.304688 -60.769531 23.101562 -60.046875 21.75 -59.015625 C 19.925781 -57.609375 18.054688 -55.78125 16.140625 -53.53125 C 14.222656 -51.289062 12.410156 -48.835938 10.703125 -46.171875 C 8.992188 -43.503906 7.539062 -40.800781 6.34375 -38.0625 C 5.15625 -35.332031 4.335938 -32.703125 3.890625 -30.171875 C 3.453125 -27.648438 3.554688 -25.425781 4.203125 -23.5 C 5.566406 -19.476562 9.453125 -17.421875 15.859375 -17.328125 C 16.234375 -17.328125 16.546875 -17.1875 16.796875 -16.90625 C 17.054688 -16.625 17.1875 -16.296875 17.1875 -15.921875 C 17.1875 -15.554688 17.046875 -15.242188 16.765625 -14.984375 C 16.484375 -14.722656 16.179688 -14.59375 15.859375 -14.59375 C 15.859375 -14.59375 15.84375 -14.59375 15.8125 -14.59375 C 15.789062 -14.59375 15.78125 -14.59375 15.78125 -14.59375 C 14.050781 -14.644531 12.226562 -14.890625 10.3125 -15.328125 C 8.394531 -15.773438 6.648438 -16.570312 5.078125 -17.71875 C 3.515625 -18.863281 2.359375 -20.515625 1.609375 -22.671875 C 1.046875 -24.398438 0.820312 -26.222656 0.9375 -28.140625 C 1.0625 -30.054688 1.40625 -31.960938 1.96875 -33.859375 C 2.53125 -35.753906 3.171875 -37.53125 3.890625 -39.1875 C 4.617188 -40.851562 5.3125 -42.289062 5.96875 -43.5 C 7.882812 -47.007812 10.101562 -50.351562 12.625 -53.53125 C 15.15625 -56.71875 17.660156 -59.269531 20.140625 -61.1875 C 22.523438 -63.007812 24.441406 -63.976562 25.890625 -64.09375 C 27.335938 -64.21875 28.4375 -64.046875 29.1875 -63.578125 C 31.90625 -61.847656 32.28125 -56.890625 30.3125 -48.703125 C 29.800781 -46.546875 29.132812 -43.703125 28.3125 -40.171875 C 27.5 -36.640625 26.585938 -32.648438 25.578125 -28.203125 C 24.566406 -23.765625 23.5 -19.078125 22.375 -14.140625 C 21.257812 -9.203125 20.148438 -4.242188 19.046875 0.734375 C 17.953125 5.710938 16.898438 10.53125 15.890625 15.1875 C 14.890625 19.84375 14.015625 24.085938 13.265625 27.921875 C 15.035156 22.265625 16.90625 16.601562 18.875 10.9375 C 20.84375 5.28125 22.851562 -0.210938 24.90625 -5.546875 C 26.96875 -10.878906 29.03125 -15.90625 31.09375 -20.625 C 33.800781 -26.851562 36.179688 -31.894531 38.234375 -35.75 C 40.296875 -39.613281 42.078125 -42.570312 43.578125 -44.625 C 45.078125 -46.6875 46.335938 -48.113281 47.359375 -48.90625 C 48.390625 -49.707031 49.21875 -50.15625 49.84375 -50.25 C 50.476562 -50.34375 50.984375 -50.34375 51.359375 -50.25 C 52.015625 -50.101562 52.644531 -49.675781 53.25 -48.96875 C 53.863281 -48.269531 54.367188 -47.085938 54.765625 -45.421875 C 55.160156 -43.765625 55.394531 -41.425781 55.46875 -38.40625 C 55.539062 -35.394531 55.378906 -31.523438 54.984375 -26.796875 C 54.585938 -22.078125 53.921875 -16.28125 52.984375 -9.40625 C 55.835938 -18.0625 58.722656 -25.953125 61.640625 -33.078125 C 64.566406 -40.210938 67.410156 -46.34375 70.171875 -51.46875 C 72.929688 -56.59375 75.503906 -60.507812 77.890625 -63.21875 C 80.273438 -65.9375 82.359375 -67.203125 84.140625 -67.015625 C 86.335938 -66.773438 87.578125 -64.625 87.859375 -60.5625 Z M 87.859375 -60.5625 "/></g></g></g><g fill="#1c486f" fill-opacity="1"><g transform="translate(284.294805, 321.53743)"><g><path d="M 23.71875 -15.640625 C 24.039062 -15.460938 24.222656 -15.1875 24.265625 -14.8125 C 24.316406 -14.4375 24.25 -14.109375 24.0625 -13.828125 C 21.300781 -9.984375 18.773438 -6.8125 16.484375 -4.3125 C 14.191406 -1.8125 11.898438 0.253906 9.609375 1.890625 C 7.878906 3.109375 6.171875 3.71875 4.484375 3.71875 C 3.179688 3.71875 2.035156 3.367188 1.046875 2.671875 C 0.390625 2.203125 -0.25 1.367188 -0.875 0.171875 C -1.507812 -1.015625 -1.847656 -2.742188 -1.890625 -5.015625 C -1.941406 -7.285156 -1.378906 -10.269531 -0.203125 -13.96875 C -0.203125 -13.96875 -0.203125 -13.988281 -0.203125 -14.03125 C 1.191406 -18.519531 2.835938 -21.945312 4.734375 -24.3125 C 6.628906 -26.675781 8.253906 -27.878906 9.609375 -27.921875 C 10.691406 -27.972656 11.394531 -27.507812 11.71875 -26.53125 C 12.226562 -25.164062 11.617188 -23.234375 9.890625 -20.734375 C 8.160156 -18.234375 5.613281 -15.578125 2.25 -12.765625 C 1.21875 -9.492188 0.722656 -6.929688 0.765625 -5.078125 C 0.816406 -3.234375 1.078125 -1.898438 1.546875 -1.078125 C 2.015625 -0.265625 2.390625 0.253906 2.671875 0.484375 C 4.066406 1.515625 5.863281 1.238281 8.0625 -0.34375 C 10.21875 -1.84375 12.394531 -3.796875 14.59375 -6.203125 C 16.789062 -8.617188 19.203125 -11.675781 21.828125 -15.375 C 22.054688 -15.644531 22.359375 -15.816406 22.734375 -15.890625 C 23.109375 -15.960938 23.4375 -15.878906 23.71875 -15.640625 Z M 9.125 -24.984375 C 8.601562 -24.648438 7.898438 -23.957031 7.015625 -22.90625 C 6.128906 -21.851562 5.21875 -20.320312 4.28125 -18.3125 C 5.96875 -19.945312 7.160156 -21.335938 7.859375 -22.484375 C 8.554688 -23.628906 8.976562 -24.460938 9.125 -24.984375 Z M 9.125 -24.984375 "/></g></g></g><g clip-path="url(#ff8b3a680d)"><path fill="#ffffff" d="M 108.417969 22.847656 L 3.675781 121.746094 C 1.089844 124.1875 0.132812 127.894531 1.207031 131.28125 L 11.699219 164.296875 C 12.386719 166.460938 13.71875 168.359375 15.519531 169.742188 L 121.003906 250.757812 C 124.273438 253.269531 128.929688 252.804688 131.640625 249.699219 L 133.90625 247.097656 C 136.441406 244.191406 140.636719 243.398438 144.058594 245.183594 L 159.546875 253.261719 C 161.976562 254.53125 164.78125 254.898438 167.457031 254.300781 L 307.285156 223.152344 C 310.710938 222.390625 312.851562 218.976562 312.050781 215.558594 L 310.375 208.4375 C 309.492188 204.691406 310.6875 200.753906 313.503906 198.128906 L 371.238281 144.324219 C 374.820312 140.988281 374.957031 135.355469 371.542969 131.847656 L 260.242188 17.484375 C 257.199219 14.355469 252.226562 14.191406 248.984375 17.113281 L 232.265625 32.15625 C 228.933594 35.15625 223.988281 35.480469 220.289062 32.949219 C 214.324219 28.871094 201.875 23.703125 186.734375 23.703125 C 169.824219 23.703125 156.984375 31.03125 149.273438 35.757812 C 145.621094 38 140.988281 37.84375 137.480469 35.382812 L 118.550781 22.113281 C 115.425781 19.921875 111.195312 20.230469 108.417969 22.847656 Z M 108.417969 22.847656 " fill-opacity="1" fill-rule="nonzero"/></g><path fill="#0fb1ea" d="M 113.183594 29.875 L 20.570312 156.171875 L 130.421875 239.296875 L 219.75 110.515625 Z M 113.183594 29.875 " fill-opacity="1" fill-rule="nonzero"/><path fill="#094459" d="M 113.183594 29.875 L 10.703125 129.695312 L 20.570312 156.171875 Z M 113.183594 29.875 " fill-opacity="1" fill-rule="nonzero"/><path fill="#094459" d="M 177.796875 106.714844 C 177.214844 106.714844 176.628906 106.53125 176.128906 106.152344 C 174.929688 105.230469 174.699219 103.507812 175.621094 102.304688 C 175.859375 101.996094 199.28125 71.160156 196.574219 51.175781 C 195.9375 46.445312 193.902344 42.84375 190.359375 40.164062 C 186.8125 37.480469 182.78125 36.511719 178.085938 37.183594 C 158.128906 40.042969 134.941406 71.019531 134.707031 71.332031 C 133.804688 72.550781 132.089844 72.804688 130.875 71.902344 C 129.65625 71 129.402344 69.28125 130.304688 68.066406 C 131.308594 66.714844 155.113281 34.9375 177.304688 31.753906 C 183.453125 30.867188 188.964844 32.230469 193.667969 35.789062 C 198.371094 39.347656 201.179688 44.28125 202.011719 50.445312 C 205.019531 72.691406 181 104.308594 179.976562 105.644531 C 179.433594 106.347656 178.621094 106.714844 177.796875 106.714844 Z M 177.796875 106.714844 " fill-opacity="1" fill-rule="nonzero"/><path fill="#f7ce26" d="M 126.820312 90.195312 L 164.765625 242.144531 L 298.90625 210.777344 L 256.945312 59.769531 Z M 126.820312 90.195312 " fill-opacity="1" fill-rule="nonzero"/><path fill="#094459" d="M 126.820312 90.195312 L 137.214844 232.890625 L 164.765625 242.144531 Z M 126.820312 90.195312 " fill-opacity="1" fill-rule="nonzero"/><path fill="#094459" d="M 169.796875 103.527344 C 168.5625 103.527344 167.441406 102.6875 167.132812 101.4375 C 166.734375 99.800781 157.507812 61.179688 169.246094 42.078125 C 172.5 36.78125 177.0625 33.414062 182.804688 32.074219 C 188.539062 30.726562 194.132812 31.71875 199.410156 35.019531 C 218.441406 46.925781 227.40625 85.605469 227.78125 87.246094 C 228.113281 88.722656 227.1875 90.191406 225.710938 90.527344 C 224.222656 90.875 222.761719 89.9375 222.429688 88.460938 C 222.34375 88.082031 213.597656 50.359375 196.496094 39.667969 C 192.453125 37.136719 188.378906 36.402344 184.054688 37.414062 C 179.726562 38.425781 176.410156 40.886719 173.917969 44.945312 C 163.363281 62.121094 172.367188 99.757812 172.460938 100.136719 C 172.820312 101.609375 171.917969 103.089844 170.449219 103.449219 C 170.230469 103.503906 170.011719 103.527344 169.796875 103.527344 Z M 169.796875 103.527344 " fill-opacity="1" fill-rule="nonzero"/><path fill="#f07423" d="M 150.578125 112.839844 L 254.867188 229.675781 L 359.007812 139.5 L 251.601562 25.355469 Z M 150.578125 112.839844 " fill-opacity="1" fill-rule="nonzero"/><path fill="#094459" d="M 150.578125 112.839844 L 226.175781 234.308594 L 254.867188 229.675781 Z M 150.578125 112.839844 " fill-opacity="1" fill-rule="nonzero"/><path fill="#094459" d="M 193.546875 104.957031 C 192.789062 104.957031 192.035156 104.644531 191.492188 104.03125 C 190.378906 102.765625 164.238281 72.875 165.738281 50.503906 C 166.15625 44.308594 168.625 39.203125 173.085938 35.34375 C 177.542969 31.480469 182.953125 29.757812 189.15625 30.226562 C 211.542969 31.90625 237.472656 61.972656 238.566406 63.253906 C 239.550781 64.402344 239.414062 66.132812 238.265625 67.117188 C 237.117188 68.097656 235.382812 67.964844 234.402344 66.8125 C 234.144531 66.519531 208.851562 37.199219 188.738281 35.695312 C 184.011719 35.335938 180.039062 36.578125 176.675781 39.488281 C 173.316406 42.394531 171.527344 46.121094 171.210938 50.871094 C 169.859375 70.984375 195.347656 100.109375 195.605469 100.398438 C 196.605469 101.535156 196.5 103.269531 195.363281 104.273438 C 194.839844 104.730469 194.191406 104.957031 193.546875 104.957031 Z M 193.546875 104.957031 " fill-opacity="1" fill-rule="nonzero"/></svg>