<svg xmlns="http://www.w3.org/2000/svg" xmlns:xlink="http://www.w3.org/1999/xlink" width="500" zoomAndPan="magnify" viewBox="0 0 375 374.999991" height="500" preserveAspectRatio="xMidYMid meet" version="1.0"><defs><clipPath id="71ff003d2d"><path d="M 0 67.160156 L 375 67.160156 L 375 307.910156 L 0 307.910156 Z M 0 67.160156 " clip-rule="nonzero"/></clipPath></defs><g clip-path="url(#71ff003d2d)"><path fill="#ffffff" d="M 108.417969 75.78125 L 3.675781 174.679688 C 1.089844 177.117188 0.132812 180.824219 1.207031 184.214844 L 11.699219 217.230469 C 12.386719 219.390625 13.71875 221.292969 15.519531 222.671875 L 121.003906 303.691406 C 124.273438 306.203125 128.929688 305.738281 131.640625 302.628906 L 133.90625 300.03125 C 136.441406 297.125 140.636719 296.332031 144.058594 298.117188 L 159.546875 306.195312 C 161.976562 307.460938 164.78125 307.832031 167.457031 307.234375 L 307.285156 276.085938 C 310.710938 275.320312 312.851562 271.90625 312.050781 268.492188 L 310.375 261.371094 C 309.492188 257.621094 310.6875 253.6875 313.503906 251.058594 L 371.238281 197.257812 C 374.820312 193.917969 374.957031 188.289062 371.542969 184.777344 L 260.242188 70.414062 C 257.199219 67.289062 252.226562 67.125 248.984375 70.042969 L 232.265625 85.085938 C 228.933594 88.085938 223.988281 88.414062 220.289062 85.882812 C 214.324219 81.804688 201.875 76.636719 186.734375 76.636719 C 169.824219 76.636719 156.984375 83.964844 149.273438 88.691406 C 145.621094 90.929688 140.988281 90.777344 137.480469 88.316406 L 118.550781 75.042969 C 115.425781 72.851562 111.195312 73.160156 108.417969 75.78125 Z M 108.417969 75.78125 " fill-opacity="1" fill-rule="nonzero"/></g><path fill="#0fb1ea" d="M 113.183594 82.808594 L 20.570312 209.101562 L 130.421875 292.226562 L 219.75 163.445312 Z M 113.183594 82.808594 " fill-opacity="1" fill-rule="nonzero"/><path fill="#094459" d="M 113.183594 82.808594 L 10.703125 182.628906 L 20.570312 209.101562 Z M 113.183594 82.808594 " fill-opacity="1" fill-rule="nonzero"/><path fill="#094459" d="M 177.796875 159.648438 C 177.214844 159.648438 176.628906 159.464844 176.128906 159.082031 C 174.929688 158.160156 174.699219 156.441406 175.621094 155.238281 C 175.859375 154.925781 199.28125 124.089844 196.574219 104.105469 C 195.9375 99.378906 193.902344 95.777344 190.359375 93.097656 C 186.8125 90.410156 182.78125 89.445312 178.085938 90.113281 C 158.128906 92.972656 134.941406 123.953125 134.707031 124.265625 C 133.804688 125.484375 132.089844 125.738281 130.875 124.832031 C 129.65625 123.929688 129.402344 122.214844 130.304688 121 C 131.308594 119.644531 155.113281 87.867188 177.304688 84.6875 C 183.453125 83.800781 188.964844 85.164062 193.667969 88.722656 C 198.371094 92.28125 201.179688 97.210938 202.011719 103.375 C 205.019531 125.621094 181 157.242188 179.976562 158.574219 C 179.433594 159.277344 178.621094 159.648438 177.796875 159.648438 Z M 177.796875 159.648438 " fill-opacity="1" fill-rule="nonzero"/><path fill="#f7ce26" d="M 126.820312 143.125 L 164.765625 295.074219 L 298.90625 263.710938 L 256.945312 112.699219 Z M 126.820312 143.125 " fill-opacity="1" fill-rule="nonzero"/><path fill="#094459" d="M 126.820312 143.125 L 137.214844 285.824219 L 164.765625 295.074219 Z M 126.820312 143.125 " fill-opacity="1" fill-rule="nonzero"/><path fill="#094459" d="M 169.796875 156.457031 C 168.5625 156.457031 167.441406 155.621094 167.132812 154.367188 C 166.734375 152.730469 157.507812 114.109375 169.246094 95.007812 C 172.5 89.710938 177.0625 86.347656 182.804688 85.003906 C 188.539062 83.660156 194.132812 84.652344 199.410156 87.953125 C 218.441406 99.855469 227.40625 138.539062 227.78125 140.175781 C 228.113281 141.65625 227.1875 143.121094 225.710938 143.457031 C 224.222656 143.804688 222.761719 142.867188 222.429688 141.394531 C 222.34375 141.011719 213.597656 103.289062 196.496094 92.597656 C 192.453125 90.066406 188.378906 89.332031 184.054688 90.34375 C 179.726562 91.355469 176.410156 93.820312 173.917969 97.878906 C 163.363281 115.050781 172.367188 152.6875 172.460938 153.066406 C 172.820312 154.539062 171.917969 156.023438 170.449219 156.382812 C 170.230469 156.433594 170.011719 156.457031 169.796875 156.457031 Z M 169.796875 156.457031 " fill-opacity="1" fill-rule="nonzero"/><path fill="#f07423" d="M 150.578125 165.769531 L 254.867188 282.609375 L 359.007812 192.429688 L 251.601562 78.289062 Z M 150.578125 165.769531 " fill-opacity="1" fill-rule="nonzero"/><path fill="#094459" d="M 150.578125 165.769531 L 226.175781 287.242188 L 254.867188 282.609375 Z M 150.578125 165.769531 " fill-opacity="1" fill-rule="nonzero"/><path fill="#094459" d="M 193.546875 157.886719 C 192.789062 157.886719 192.035156 157.574219 191.492188 156.960938 C 190.378906 155.699219 164.238281 125.808594 165.738281 103.4375 C 166.15625 97.238281 168.625 92.136719 173.085938 88.273438 C 177.542969 84.414062 182.953125 82.6875 189.15625 83.15625 C 211.542969 84.839844 237.472656 114.90625 238.566406 116.183594 C 239.550781 117.335938 239.414062 119.066406 238.265625 120.046875 C 237.117188 121.03125 235.382812 120.898438 234.402344 119.746094 C 234.144531 119.449219 208.851562 90.132812 188.738281 88.625 C 184.011719 88.269531 180.039062 89.507812 176.675781 92.417969 C 173.316406 95.328125 171.527344 99.050781 171.210938 103.804688 C 169.859375 123.917969 195.347656 153.039062 195.605469 153.332031 C 196.605469 154.46875 196.5 156.199219 195.363281 157.203125 C 194.839844 157.664062 194.191406 157.886719 193.546875 157.886719 Z M 193.546875 157.886719 " fill-opacity="1" fill-rule="nonzero"/></svg>